<svg width="41" height="44" viewBox="0 0 41 44" fill="none" xmlns="http://www.w3.org/2000/svg">
<path fill-rule="evenodd" clip-rule="evenodd" d="M23.4335 28.5826C25.8415 28.5826 27.8015 30.5286 27.8015 32.9206V39.0726C27.8015 39.5866 28.2135 39.9986 28.7415 40.0106H32.5535C35.5575 40.0106 37.9995 37.5986 37.9995 34.6346V17.1866C37.9855 16.1666 37.4995 15.2066 36.6655 14.5686L23.4795 4.05262C21.7095 2.65062 19.2335 2.65062 17.4575 4.05662L4.36151 14.5646C3.49551 15.2226 3.00951 16.1826 2.99951 17.2206V34.6346C2.99951 37.5986 5.44151 40.0106 8.44551 40.0106H12.2935C12.8355 40.0106 13.2755 39.5806 13.2755 39.0526C13.2755 38.9366 13.2895 38.8206 13.3135 38.7106V32.9206C13.3135 30.5426 15.2615 28.5986 17.6515 28.5826H23.4335ZM32.5535 43.0106H28.7055C26.5015 42.9586 24.8015 41.2286 24.8015 39.0726V32.9206C24.8015 32.1826 24.1875 31.5826 23.4335 31.5826H17.6615C16.9235 31.5866 16.3135 32.1886 16.3135 32.9206V39.0526C16.3135 39.2026 16.2935 39.3466 16.2515 39.4826C16.0355 41.4626 14.3435 43.0106 12.2935 43.0106H8.44551C3.78751 43.0106 -0.000488281 39.2526 -0.000488281 34.6346V17.2066C0.0195117 15.2186 0.935512 13.3986 2.51751 12.2006L15.5875 1.71062C18.4655 -0.569378 22.4755 -0.569378 25.3475 1.70662L38.5115 12.2066C40.0575 13.3846 40.9735 15.2006 40.9995 17.1646V34.6346C40.9995 39.2526 37.2115 43.0106 32.5535 43.0106Z" fill="#032630"/>
</svg>
