<svg width="40" height="40" viewBox="0 0 40 40" fill="none" xmlns="http://www.w3.org/2000/svg">
<path d="M3.56483 13.3382H11.5981C12.0402 13.3382 12.4641 13.1626 12.7767 12.85C13.0892 12.5375 13.2648 12.1135 13.2648 11.6715C13.2648 11.2295 13.0892 10.8056 12.7767 10.493C12.4641 10.1804 12.0402 10.0048 11.5981 10.0048H6.59816C8.93417 6.89159 12.2861 4.6941 16.0727 3.79346C19.8593 2.89283 23.8417 3.34587 27.3292 5.074C30.8167 6.80213 33.5894 9.69636 35.1665 13.2548C36.7436 16.8132 37.0255 20.8113 35.9634 24.5558C34.9012 28.3003 32.5621 31.555 29.3516 33.7554C26.141 35.9558 22.2616 36.9632 18.3861 36.6028C14.5106 36.2425 10.8835 34.5371 8.13373 31.7824C5.38395 29.0278 3.685 25.3976 3.3315 21.5215C3.32095 21.2968 3.26503 21.0766 3.1671 20.874C3.06917 20.6715 2.93126 20.4909 2.76168 20.3431C2.5921 20.1954 2.39436 20.0834 2.18036 20.0141C1.96637 19.9448 1.74055 19.9195 1.51652 19.9397C1.29249 19.96 1.07488 20.0254 0.876802 20.132C0.678722 20.2386 0.504273 20.3842 0.363962 20.56C0.223652 20.7358 0.120386 20.9383 0.0603845 21.1551C0.000383158 21.3718 -0.0151112 21.5985 0.0148347 21.8215C0.434015 26.405 2.42125 30.7036 5.64131 33.9923C8.86138 37.2809 13.1172 39.3583 17.6908 39.874C22.2645 40.3897 26.876 39.3122 30.7475 36.8231C34.619 34.334 37.5136 30.5858 38.9429 26.2107C40.3722 21.8357 40.2487 17.1015 38.5933 12.8069C36.938 8.51225 33.852 4.91999 29.856 2.63608C25.8601 0.352177 21.1986 -0.483591 16.6581 0.269766C12.1175 1.02312 7.97578 3.3195 4.93149 6.77151V3.33818C4.93149 2.89616 4.7559 2.47224 4.44334 2.15968C4.13078 1.84712 3.70686 1.67152 3.26483 1.67152C2.8228 1.67152 2.39888 1.84712 2.08632 2.15968C1.77376 2.47224 1.59817 2.89616 1.59817 3.33818V11.6715C1.59817 12.1135 1.77376 12.5375 2.08632 12.85C2.39888 13.1626 2.8228 13.3382 3.26483 13.3382H3.56483ZM18.2648 10.0048C18.7068 10.0048 19.1308 10.1804 19.4433 10.493C19.7559 10.8056 19.9315 11.2295 19.9315 11.6715V20.0048H24.9315C25.3735 20.0048 25.7974 20.1804 26.11 20.493C26.4225 20.8055 26.5981 21.2295 26.5981 21.6715C26.5981 22.1135 26.4225 22.5374 26.11 22.85C25.7974 23.1626 25.3735 23.3382 24.9315 23.3382H18.2648C17.8228 23.3382 17.3989 23.1626 17.0863 22.85C16.7737 22.5374 16.5981 22.1135 16.5981 21.6715V11.6715C16.5981 11.2295 16.7737 10.8056 17.0863 10.493C17.3989 10.1804 17.8228 10.0048 18.2648 10.0048Z" fill="#032630"/>
</svg>
