<svg width="43" height="35" viewBox="0 0 43 35" fill="none" xmlns="http://www.w3.org/2000/svg">
<path fill-rule="evenodd" clip-rule="evenodd" d="M34.902 -0.000610352C39.366 -0.000610352 42.998 3.59539 42.998 8.01339L43 13.2014C43 13.5974 42.842 13.9814 42.56 14.2614C42.28 14.5434 41.898 14.7014 41.5 14.7014C39.926 14.7014 38.646 15.9574 38.646 17.5014C38.646 19.0454 39.926 20.3014 41.5 20.3014C42.328 20.3014 43 20.9734 43 21.8014V26.9854C43 31.4034 39.368 34.9994 34.904 34.9994H8.096C3.632 34.9994 0 31.4034 0 26.9854V21.8014C0 20.9734 0.672 20.3014 1.5 20.3014C3.074 20.3014 4.354 19.0454 4.354 17.5014C4.354 16.0014 3.126 14.8694 1.5 14.8694C1.102 14.8694 0.72 14.7114 0.44 14.4294C0.158 14.1494 0 13.7654 0 13.3694L0.002 8.01339C0.002 3.59539 3.634 -0.000610352 8.098 -0.000610352H34.902ZM34.902 2.99939H26.698L26.6992 6.84179C26.6992 7.66979 26.0272 8.34179 25.1992 8.34179C24.3712 8.34179 23.6992 7.66979 23.6992 6.84179L23.698 2.99939H8.098C5.288 2.99939 3.002 5.24939 3.002 8.01339L3 12.0494C5.534 12.6714 7.354 14.8434 7.354 17.5014C7.354 20.1854 5.502 22.4494 3 23.1074V26.9854C3 29.7494 5.286 31.9994 8.096 31.9994H23.698L23.6992 29.0224C23.6992 28.1924 24.3712 27.5224 25.1992 27.5224C26.0272 27.5224 26.6992 28.1924 26.6992 29.0224L26.698 31.9994H34.904C37.714 31.9994 40 29.7494 40 26.9854V23.1074C37.498 22.4494 35.646 20.1854 35.646 17.5014C35.646 14.8154 37.496 12.5534 40 11.8954L39.998 8.01339C39.998 5.24939 37.712 2.99939 34.902 2.99939ZM25.1992 11.0084C26.0272 11.0084 26.6992 11.6804 26.6992 12.5084V22.1504C26.6992 22.9784 26.0272 23.6504 25.1992 23.6504C24.3712 23.6504 23.6992 22.9784 23.6992 22.1504V12.5084C23.6992 11.6804 24.3712 11.0084 25.1992 11.0084Z" fill="#032630"/>
</svg>
