<svg width="16" height="20" viewBox="0 0 16 20" fill="none" xmlns="http://www.w3.org/2000/svg">
<path fill-rule="evenodd" clip-rule="evenodd" d="M15.8399 16.1932C15.8399 19.4892 11.3199 19.8702 7.92088 19.8702L7.67764 19.8699C5.51208 19.8647 -0.00012207 19.728 -0.00012207 16.1732C-0.00012207 12.9444 4.33823 12.5129 7.71136 12.4967L8.16411 12.4964C10.3295 12.5016 15.8399 12.6383 15.8399 16.1932ZM7.92088 13.9962C3.65988 13.9962 1.49988 14.7282 1.49988 16.1732C1.49988 17.6312 3.65988 18.3702 7.92088 18.3702C12.1809 18.3702 14.3399 17.6382 14.3399 16.1932C14.3399 14.7352 12.1809 13.9962 7.92088 13.9962ZM7.92088 -0.000244141C10.8489 -0.000244141 13.2299 2.38176 13.2299 5.30976C13.2299 8.23776 10.8489 10.6188 7.92088 10.6188H7.88888C4.96688 10.6098 2.59988 8.22676 2.60985 5.30676C2.60985 2.38176 4.99188 -0.000244141 7.92088 -0.000244141ZM7.92088 1.42776C5.77988 1.42776 4.03786 3.16876 4.03786 5.30976C4.03088 7.44376 5.75988 9.18376 7.89188 9.19176L7.92088 9.90576V9.19176C10.0609 9.19176 11.8019 7.44976 11.8019 5.30976C11.8019 3.16876 10.0609 1.42776 7.92088 1.42776Z" fill="#032630"/>
</svg>
